<svg xmlns="http://www.w3.org/2000/svg" viewBox="0 0 40 40"><defs><style>.cls-1{fill:#fff;}</style></defs><g id="Layer_2" data-name="Layer 2"><g id="Layer_1-2" data-name="Layer 1"><path class="cls-1" d="M20,0A20,20,0,1,0,40,20,20,20,0,0,0,20,0ZM38,20A18,18,0,1,1,20,2,18.06,18.06,0,0,1,38,20Z"/><rect class="cls-1" x="19.02" y="4.48" width="1.96" height="2.89"/><rect class="cls-1" x="19.02" y="32.58" width="1.96" height="2.89"/><rect class="cls-1" x="28.97" y="8.82" width="2.33" height="1.96" transform="translate(1.89 24.17) rotate(-44.98)"/><rect class="cls-1" x="8.7" y="29.16" width="2.33" height="1.96" transform="translate(-18.42 15.81) rotate(-45)"/><rect class="cls-1" x="32.64" y="19.02" width="2.89" height="1.96"/><rect class="cls-1" x="4.48" y="19.02" width="2.89" height="1.96"/><rect class="cls-1" x="29.15" y="28.94" width="1.96" height="2.33" transform="translate(-12.46 30.12) rotate(-45)"/><rect class="cls-1" x="8.85" y="8.63" width="1.96" height="2.33" transform="translate(-4.05 9.82) rotate(-45)"/><path class="cls-1" d="M28.64,12.55a1.22,1.22,0,0,0-.35-.86,1.27,1.27,0,0,0-1.69,0L21,17.35a2.72,2.72,0,0,0-.95-.18,2.82,2.82,0,0,0-1.23,5.36V27.3a1.23,1.23,0,0,0,2.15.82,1,1,0,0,0,.24-.76V22.57A2.83,2.83,0,0,0,22.82,20a2.56,2.56,0,0,0-.18-1l5.66-5.65A1.22,1.22,0,0,0,28.64,12.55ZM20,20.86a.86.86,0,1,1,.86-.86A.87.87,0,0,1,20,20.86Z"/></g></g></svg>