<?xml version="1.0" encoding="UTF-8" standalone="no"?>
<svg
   xmlns:dc="http://purl.org/dc/elements/1.1/"
   xmlns:cc="http://creativecommons.org/ns#"
   xmlns:rdf="http://www.w3.org/1999/02/22-rdf-syntax-ns#"
   xmlns:svg="http://www.w3.org/2000/svg"
   xmlns="http://www.w3.org/2000/svg"
   xmlns:sodipodi="http://sodipodi.sourceforge.net/DTD/sodipodi-0.dtd"
   xmlns:inkscape="http://www.inkscape.org/namespaces/inkscape"
   inkscape:version="1.0 (4035a4f, 2020-05-01)"
   sodipodi:docname="GlobalHealthcareLogo-White.png.svg"
   version="1.1"
   id="svg110"
   width="980"
   height="852"
   viewBox="0 0 980 852">
  <sodipodi:namedview
     inkscape:current-layer="g118"
     inkscape:window-maximized="0"
     inkscape:window-y="147"
     inkscape:window-x="453"
     inkscape:cy="426"
     inkscape:cx="490"
     inkscape:zoom="0.72653061"
     showgrid="false"
     id="namedview979"
     inkscape:window-height="828"
     inkscape:window-width="1369"
     inkscape:pageshadow="2"
     inkscape:pageopacity="0"
     guidetolerance="10"
     gridtolerance="10"
     objecttolerance="10"
     borderopacity="1"
     bordercolor="#666666"
     pagecolor="#ffffff" />
  <metadata
     id="metadata116">
    <rdf:RDF>
      <cc:Work
         rdf:about="">
        <dc:format>image/svg+xml</dc:format>
        <dc:type
           rdf:resource="http://purl.org/dc/dcmitype/StillImage" />
        <dc:title></dc:title>
      </cc:Work>
    </rdf:RDF>
  </metadata>
  <defs
     id="defs114" />
  <g
     style="opacity:1"
     transform="translate(1.3764045,1.3764045)"
     id="g118">
    <path
       style="fill:#ffffff;fill-opacity:1;stroke:#333333;stroke-width:3.3;stroke-linejoin:round;stroke-miterlimit:4.1;stroke-dasharray:none;stroke-opacity:1"
       d="m 321.68985,850.40951 c -30.61984,-6.57846 -65.35325,-28.10552 -100.8957,-62.53311 -50.06199,-48.4917 -76.23914,-97.66791 -100.60719,-189 -10.52186,-39.4362 -13.50056,-59.93811 -13.48891,-92.84174 0.0128,-36.19683 1.8353,-47.79245 11.40666,-72.57587 3.41198,-8.83472 3.52568,-9.49061 1.94761,-11.23436 -0.92176,-1.01853 -8.2429,-5.86099 -16.2692,-10.76103 C 70.981558,391.43813 47.447598,370.40488 29.106578,344.72194 8.2668381,315.54004 -0.67619191,287.37128 1.0586281,256.3764 c 1.03694,-18.52636 4.34843,-31.29679 12.6437399,-48.75926 24.55666,-51.69426 79.98973,-95.64653 161.987482,-128.43808 15.47669,-6.18926 44.14695,-15.98904 44.81707,-15.31892 0.77771,0.77771 -26.72359,27.52475 -33.66959,32.74616 -3.42913,2.57772 -18.02764,10.51539 -32.44113,17.63926 -43.82752,21.66178 -63.373702,35.36657 -90.891222,63.72833 -19.81332,20.4212 -29.99447,37.15256 -36.03319,59.21577 -1.76276,6.44043 -2.11243,10.60522 -2.15667,25.68674 -0.0455,15.52834 0.24932,19.11407 2.14736,26.11331 6.31067,23.27141 18.48671,42.80673 40.15623,64.42692 18.93316,18.89005 38.869882,33.55134 64.464062,47.4063 l 8.89292,4.81402 11.60708,-3.63496 c 14.72249,-4.6106 21.25235,-6.05222 38.60708,-8.52342 20.27276,-2.88671 37.21387,-4.10217 57.17613,-4.10217 19.81341,0 30.89483,1.3422 54.81258,6.63901 75.49057,16.71808 123.16799,36.7425 162.01129,68.04443 12.97918,10.45929 33.55616,31.7443 45.29465,46.85319 11.55977,14.87885 29.72591,42.00397 39.04434,58.29978 9.32549,16.30817 12.01326,24.57708 13.27757,40.84835 1.65227,21.26426 0.0299,31.14391 -7.61128,46.35066 -1.51023,3.00552 -2.90506,5.6404 -3.09962,5.85528 -0.28665,0.31662 -13.72442,-9.23985 -16.70205,-11.87791 -0.43802,-0.38807 0.79948,-5.47548 2.75,-11.30535 4.28637,-12.81149 4.72377,-22.69362 1.56232,-35.29748 -5.56998,-22.2061 -33.65873,-65.08528 -66.88002,-102.0964 -23.17956,-25.82385 -57.92572,-48.56251 -94.23059,-61.66658 -25.34241,-9.14723 -56.17904,-17.47886 -80.4996,-21.74988 -17.83863,-3.13271 -43.57548,-3.19627 -57.40572,-0.14177 -28.22197,6.233 -50.1271,18.0032 -68.5,36.80681 -29.53597,30.2284 -41.7208,67.21724 -36.05088,109.43786 4.75499,35.40777 22.27803,89.2608 41.62014,127.90997 24.29348,48.54291 56.66882,85.24992 100.72171,114.19781 25.25866,16.59788 41.05574,22.62528 62.20903,23.73592 l 12.5,0.6563 4.1985,7.5 c 2.30918,4.125 4.50643,8.09275 4.88278,8.81722 1.07676,2.07272 -0.76568,3.15439 -7.15502,4.20069 -9.06027,1.4837 -23.9828,1.0441 -33.42626,-0.9848 z m 61.94985,-5.99867 c -7.92468,-4.19022 -15.29248,-14.95927 -16.55964,-24.20417 -1.62414,-11.84941 8.17546,-26.54125 26.38424,-39.55604 7.26498,-5.19266 13.29394,-7.27423 21.06876,-7.27423 7.35936,0 13.0279,2.85964 18.60208,9.38429 5.7921,6.77972 6.55471,9.03275 6.55471,19.36509 0,6.80398 -0.45761,9.56447 -2.17291,13.10781 -4.0468,8.35956 -20.19845,22.48777 -32.32709,28.27721 -7.3285,3.49817 -15.95511,3.85845 -21.55015,0.90004 z M 488.18985,734.98616 c -5.85097,-2.77417 -11.3817,-8.28424 -14.66456,-14.60976 -3.01569,-5.81073 -3.30159,-18.50695 -0.54222,-24.07901 2.96478,-5.98685 14.63275,-19.81594 21.49495,-25.4762 8.50524,-7.01552 12.35004,-8.76529 20.32942,-9.25193 11.15169,-0.68011 20.33995,4.92983 25.59232,15.62554 2.39168,4.8703 2.79009,6.90026 2.79009,14.21598 0,7.96458 -0.23368,8.92777 -3.5,14.42661 -1.925,3.24073 -7.61175,10.03124 -12.63723,15.09003 -15.31485,15.41637 -27.04766,19.66076 -38.86277,14.05874 z m -67,-44.70203 c -63.03171,-5.12077 -126.12085,-30.4476 -180.5,-72.46087 -14.78778,-11.42502 -46.01753,-42.65401 -57.44825,-57.44686 -10.76867,-13.93606 -22.08754,-31.0634 -23.64255,-35.77511 -0.62769,-1.90194 -0.89693,-5.27967 -0.59831,-7.50607 0.60734,-4.52804 9.95792,-24.34228 14.82741,-31.41984 17.89498,-26.00945 48.87834,-45.37375 77.62057,-48.51211 22.85581,-2.49562 61.10102,3.16766 93.52678,13.84927 13.88265,4.57318 16.00836,6.3621 18.20346,15.31941 3.4438,14.05276 7.77861,18.27585 34.51089,33.62151 11.71572,6.72541 16.62878,11.4338 18.4977,17.72715 2.42904,8.17947 4.52589,32.43131 5.06778,58.6133 l 0.50537,24.41752 5.39275,10.08248 c 2.96601,5.54537 6.56886,13.22349 8.00633,17.06249 3.18683,8.51093 5.79413,11.52 9.98188,11.52 6.93068,0 11.09909,-6.52339 12.64641,-19.79108 1.28888,-11.05159 3.28633,-17.2817 6.51336,-20.31529 2.41124,-2.26671 3.40372,-2.42193 18.71734,-2.92743 9.60877,-0.31719 17.03534,-1.01551 18.30083,-1.72083 1.17136,-0.65286 2.85521,-3.00015 3.7419,-5.2162 0.88669,-2.21604 2.03516,-4.02917 2.55216,-4.02917 3.79864,0 12.99183,24.78076 13.05883,35.20078 0.0661,10.28359 -5.53816,19.79922 -11.66085,19.79922 -3.90091,0 -15.39838,5.68203 -23.32179,11.52558 -13.54174,9.9871 -27.76498,25.57937 -32.58774,35.72442 l -1.78268,3.75 -10.06479,-0.13993 c -5.53564,-0.077 -14.56479,-0.50552 -20.06479,-0.95234 z m 151.5,-20.80394 c 0,-0.49291 1.56078,-4.20541 3.46841,-8.25 7.12202,-15.10025 9.61473,-32.30174 7.72035,-53.27583 -1.97033,-21.81496 -5.60269,-31.92628 -20.0815,-55.90036 l -7.01613,-11.61734 4.20444,-3.65218 c 2.31243,-2.00871 5.77943,-4.15976 7.70443,-4.78013 2.64356,-0.85195 4.05057,-2.21976 5.75,-5.58984 1.2375,-2.45404 2.26184,-5.82904 2.27631,-7.5 0.027,-3.11568 4.0881,-11.25329 12.27904,-24.60457 2.59096,-4.22327 5.36727,-10.40906 6.28347,-14 0.90282,-3.53845 2.48967,-8.10311 3.52633,-10.1437 1.08924,-2.14407 1.88485,-5.78942 1.88485,-8.63605 0,-4.08446 -0.68544,-5.95234 -4.0127,-10.93495 -7.49261,-11.22027 -12.07219,-14.30616 -32.95606,-22.20702 -23.01818,-8.70832 -28.63112,-12.2738 -32.44854,-20.61214 -3.72436,-8.13509 -9.14974,-15.06164 -14.04393,-17.92982 -3.94559,-2.31228 -5.09991,-2.48348 -15.15483,-2.24776 -12.6719,0.29708 -15.95964,-0.97076 -20.65784,-7.9662 -3.30008,-4.9137 -10.49164,-8.77577 -19.44019,-10.43992 -5.98016,-1.11213 -6.22387,-1.06749 -13.79062,2.52594 -8.85123,4.20343 -10.21396,4.35917 -15.28513,1.74687 -3.88337,-2.00043 -18.14906,-14.48586 -22.61333,-19.79134 -3.26922,-3.88525 -3.24688,-4.70565 0.32421,-11.90699 5.31193,-10.71184 4.62287,-15.43038 -2.24247,-15.35604 -8.39156,0.0909 -31.21186,12.84944 -38.02124,21.25725 -6.49633,8.02127 -7.10557,10.00536 -7.22037,23.51436 -0.0922,10.84718 -0.33921,12.54067 -2.08381,14.28527 -1.97231,1.97231 -2.03322,1.96518 -17.41619,-2.03852 -72.95478,-18.98778 -128.43228,-20.02757 -190.93696,-3.57863 l -10.5,2.76322 -13.5,-8.00687 c -7.425,-4.40377 -14.31788,-8.91368 -15.31751,-10.02202 -4.35973,-4.83383 -4.40316,-32.55639 -0.10413,-66.47187 8.78482,-69.30435 45.29512,-142.3645 97.15868,-194.42261 55.3762,-55.58392 130.87442,-91.33653 210.76296,-99.8080099 16.31696,-1.73027 46.04987,-1.94771 62.5,-0.45707 57.62637,5.22184 113.75859,25.0845699 162.49998,57.5016099 17.936,11.92894 31.0469,22.95309 51.0498,42.92474 30.475,30.42745 46.8221,52.6456 64.3568,87.47069 43.8463,87.08167 49.6666,182.26072 16.7058,273.1904 -23.5525,64.97482 -64.491,119.31476 -121.8546,161.74452 -21.6702,16.02869 -42.5734,27.80895 -70.10593,39.50912 -10.88606,4.62611 -13.65185,5.37851 -13.65185,3.71379 z M 782.99923,364.50091 c 2.0847,-2.09464 2.1848,-2.98511 2.0709,-18.4128 -0.2426,-32.83954 -6.9724,-73.86037 -15.4637,-94.25736 -3.7088,-8.90911 -6.3672,-11.52538 -12.4018,-12.20558 -3.9807,-0.44868 -5.1833,-0.10967 -8.8123,2.48414 -2.3114,1.65204 -6.6551,4.24121 -9.6527,5.75369 -9.0384,4.56046 -13.0425,7.64476 -15.6081,12.02276 -1.3429,2.2915 -2.4417,4.77564 -2.4417,5.52033 0,0.74469 1.8,4.38382 4,8.08697 5.2717,8.87358 5.1882,11.00922 -0.6394,16.35995 l -4.6395,4.25975 -0.9086,10.84635 c -0.5997,7.15813 -1.6073,12.3886 -2.9631,15.38182 -1.1701,2.58304 -2.0718,6.71031 -2.0948,9.58759 -0.084,10.5649 3.5981,15.57877 16.0451,21.847 12.346,6.21733 20.2898,7.50117 22.6622,3.66256 1.8986,-3.072 7.5176,0.007 10.477,5.74183 0.6538,1.26693 2.6225,3.20448 4.3749,4.30567 4.3219,2.7158 12.8344,2.19178 15.9956,-0.98467 z m -453.82753,-0.0951 c 1.7374,-2.81117 -8.78549,-15.81591 -19.5118,-24.11369 -11.97747,-9.26568 -19.9666,-20.80067 -28.16031,-40.65883 -5.87977,-14.25013 -5.27931,-25.24847 1.73987,-31.86841 6.81657,-6.42885 26.75466,-12.784 35.80046,-11.41119 7.6858,1.16641 15.74491,10.55934 19.05289,22.20625 2.60324,9.1656 8.46964,14.41753 15.23955,13.6433 2.67339,-0.30575 2.87583,-0.64894 3.14218,-5.3268 0.19912,-3.49708 1.9795,-8.7573 5.92307,-17.5 6.52572,-14.46723 10.82658,-21.65169 16.82832,-28.1112 2.35642,-2.53617 7.34957,-9.28617 11.09588,-15 7.14762,-10.90149 24.20055,-29.43039 34.15183,-37.10775 l 5.43591,-4.19377 14.61949,-0.76961 c 16.54677,-0.87107 18.16646,-1.51438 21.82773,-8.66953 1.89066,-3.69487 3.01772,-8.68202 4.94882,-21.89814 0.4618,-3.16044 0.61006,-3.25 5.38035,-3.25 16.14723,0 25.04531,-6.43263 26.52422,-19.17497 0.39384,-3.39334 1.78788,-9.32097 3.09788,-13.17252 3.3913,-9.97084 3.17596,-15.24468 -0.86819,-21.26287 -4.77724,-7.10912 -8.71592,-9.39423 -16.14788,-9.36854 -7.08128,0.0245 -13.61473,2.20358 -31.1009,10.37309 -13.30197,6.21466 -15.26732,6.50489 -26.40554,3.8994 l -7.40432,-1.73203 -5.98425,6.46922 c -6.32609,6.83876 -9.64885,12.7214 -9.68515,17.14664 -0.0294,3.58161 -3.7994,6.40555 -10.57622,7.92214 -6.06132,1.35646 -15.94137,-0.0846 -28.44574,-4.14889 -12.18929,-3.9619 -13.82177,-6.72787 -6.82548,-11.56467 4.05923,-2.80629 4.48382,-2.87956 15.37339,-2.65274 l 11.19887,0.23326 0.6909,-5.20826 c 0.38,-2.86455 1.16707,-5.78201 1.74906,-6.48326 0.627,-0.75549 3.35111,-1.27727 6.6857,-1.28057 8.17046,-0.008 12.39608,-1.50944 18.20563,-6.46839 2.83617,-2.42091 8.36636,-6.07709 12.2893,-8.12485 10.95153,-5.71665 17.96094,-10.8027 22.75888,-16.51391 7.16045,-8.52342 12.53357,-13.43013 16.82673,-15.36607 2.22586,-1.00373 4.04592,-2.09411 4.04457,-2.42308 -0.004,-0.88725 -20.56593,-10.09885 -27.49755,-12.31849 -7.7007,-2.46592 -11.40694,-1.84204 -17.84663,3.00417 -2.83435,2.13301 -9.4921,6.42679 -14.79499,9.54174 -10.20556,5.99482 -13.22271,8.90321 -18.85838,18.17858 -1.925,3.16823 -5.15412,6.86361 -7.17582,8.21195 -3.67822,2.45308 -6.82418,7.4818 -6.82418,10.9082 0,1.27977 -2.02418,-0.18663 -6.80128,-4.92711 l -6.80128,-6.74917 -2.24989,2.39491 c -3.87926,4.12928 -11.71509,7.81352 -15.88253,7.46762 -3.49397,-0.29 -3.7829,-0.5658 -4.3629,-4.16472 -1.15824,-7.18684 -4.26051,-7.12717 -19.78386,0.38052 l -10.38174,5.02101 -3.63188,-3.93403 c -2.48064,-2.68702 -4.83988,-4.16065 -7.44285,-4.64897 -11.52961,-2.16297 -42.60742,12.89431 -60.81503,29.46504 l -6.65325,6.05511 -0.65048,10.75774 c -1.61852,26.76701 -3.66709,33.09019 -21.78995,67.25773 -12.44227,23.45775 -14.67997,35.82332 -8.662,47.86634 1.83024,3.66265 4.72753,7.50082 7.10303,9.40973 5.16668,4.15184 12.45792,13.80442 15.39528,20.38121 1.26686,2.83651 3.42776,10.14862 4.80201,16.24913 4.48116,19.89269 12.09511,30.7674 27.23721,38.90186 4.41086,2.36955 10.91136,6.835 14.44557,9.92321 10.59405,9.25717 24.3091,17.33517 43.92582,25.87177 7.76696,3.37995 11.44992,4.09581 12.48185,2.42612 z M 697.50023,181.97444 c 3.3491,-1.73186 7.1896,-8.34476 7.1896,-12.37949 0,-1.65502 -1.35,-6.18158 -3,-10.05903 -4.7716,-11.21318 -3.7704,-14.15952 4.8118,-14.15952 4.62,0 6.6751,-1.92398 5.7961,-5.4263 -1.3993,-5.57529 -28.9136,-36.27168 -31.7291,-35.39872 -0.7583,0.23512 -2.3241,2.37397 -3.4796,4.75301 -3.0103,6.19823 -4.2537,6.57952 -11.5039,3.52793 -7.8277,-3.29464 -10.8994,-2.78301 -10.8855,1.81313 0.015,4.98232 4.2449,12.9371 9.0795,17.07536 l 4.3614,3.7332 -0.2793,6.21898 c -0.2441,5.43416 0.1688,7.11476 3.2717,13.31709 1.9531,3.90395 5.2944,9.07857 7.425,11.49915 2.6007,2.95449 4.1109,5.80331 4.5948,8.66733 0.6034,3.57175 1.3163,4.58089 4.3789,6.19886 4.4205,2.33532 6.4107,2.4589 9.9686,0.61902 z m 199.4272,178.29149 c -12.6839,-2.11298 -25.7575,-8.24757 -36.3332,-17.04878 -25.3663,-21.11004 -32.9138,-60.19422 -17.3454,-89.82109 4.5022,-8.56766 8.9024,-13.76398 20.2669,-23.9338 10.7285,-9.60075 10.6278,-9.10603 4.092,-20.10748 -10.2039,-17.17573 -36.6071,-45.1225 -57.3311,-60.68282 -13.4101,-10.06882 -30.7229,-20.4041 -55.0868,-32.88544 -24.2291,-12.41226 -30.0843,-16.48215 -48.7342,-33.87448 -21.648,-20.1882 -21.2918,-19.14491 -4.569,-13.37979 78.2025,26.96017 137.8279,64.27764 170.7142,106.84415 10.27,13.29308 14.527,19.73743 19.1254,28.95278 2.1926,4.39403 4.7689,8.40481 5.7251,8.91285 0.9562,0.50804 5.7885,1.23744 10.7385,1.62089 18.9249,1.46603 29.6038,4.83517 40.8707,12.89456 13.1988,9.44128 23.7811,23.28626 28.3117,37.04051 2.3535,7.14471 2.6673,9.69653 2.7148,22.07841 0.062,16.05037 -1.2857,22.64018 -7.0318,34.39116 -7.1661,14.65499 -25.3184,30.31629 -41.1205,35.47769 -13.8109,4.51103 -23.3211,5.46747 -35.0073,3.52068 z m 22.2624,-18.39393 c 21.0314,-4.4156 37.7694,-20.34352 42.5125,-40.4551 1.7696,-7.5038 1.5913,-20.25982 -0.3905,-27.9276 -8.5556,-33.10197 -47.676,-51.02708 -77.622,-35.56659 -10.6607,5.50391 -23.2071,19.04574 -26.9743,29.11448 -8.1267,21.72081 -3.0569,45.57732 12.8809,60.61228 13.8489,13.06435 31.2885,18.06571 49.5934,14.22253 z m -20.1165,-17.84857 c -9.8282,-2.49813 -19.6267,-10.32305 -24.233,-19.35199 -3.0506,-5.97984 -4.3848,-15.11132 -3.2433,-22.19912 2.613,-16.22546 13.0379,-27.07 30.274,-31.49283 4.9235,-1.26337 6.4871,-1.26983 11.7227,-0.0485 22.677,5.2902 34.7394,23.57905 30.1457,45.7067 -1.4538,7.00288 -7.5209,16.44143 -13.3008,20.69202 -8.7452,6.43128 -21.6025,9.17516 -31.3653,6.69367 z"
       id="path130" />
  </g>
</svg>
